<?xml version="1.0" standalone="no"?>
<!DOCTYPE svg PUBLIC "-//W3C//DTD SVG 20010904//EN"
 "http://www.w3.org/TR/2001/REC-SVG-20010904/DTD/svg10.dtd">
<svg version="1.0" xmlns="http://www.w3.org/2000/svg"
 width="500.000000pt" height="500.000000pt" viewBox="0 0 500.000000 500.000000"
 preserveAspectRatio="xMidYMid meet">

<g transform="translate(0.000000,500.000000) scale(0.100000,-0.100000)"
fill="#000000" stroke="none">
<path d="M850 3070 l0 -80 120 0 120 0 0 -290 0 -290 80 0 80 0 0 290 0 290
115 0 116 0 -3 78 -3 77 -312 3 -313 2 0 -80z"/>
<path d="M1827 3144 c-4 -4 -7 -171 -7 -371 l0 -363 85 0 85 0 -2 368 -3 367
-75 3 c-42 1 -79 0 -83 -4z"/>
<path d="M2480 3030 l0 -90 810 0 810 0 0 90 0 90 -810 0 -810 0 0 -90z"/>
<path d="M3724 2650 c-139 -29 -244 -131 -280 -270 -46 -181 34 -363 194 -442
64 -32 72 -33 182 -33 104 0 121 3 172 27 132 62 208 175 216 324 9 176 -79
318 -235 378 -55 20 -188 29 -249 16z m207 -173 c68 -36 103 -93 107 -177 7
-110 -28 -179 -112 -222 -60 -31 -156 -30 -216 2 -67 38 -103 96 -108 176 -7
105 40 194 123 230 51 22 155 18 206 -9z"/>
<path d="M2500 2570 l0 -80 115 0 115 0 0 -290 0 -290 85 0 85 0 0 290 0 290
115 0 115 0 0 80 0 80 -315 0 -315 0 0 -80z"/>
<path d="M630 2000 l0 -90 815 0 815 0 0 90 0 90 -815 0 -815 0 0 -90z"/>
</g>
</svg>
